<?xml version="1.0" encoding="UTF-8" standalone="no"?>
<svg
   xmlns:dc="http://purl.org/dc/elements/1.1/"
   xmlns:cc="http://creativecommons.org/ns#"
   xmlns:rdf="http://www.w3.org/1999/02/22-rdf-syntax-ns#"
   xmlns:svg="http://www.w3.org/2000/svg"
   xmlns="http://www.w3.org/2000/svg"
   xmlns:sodipodi="http://sodipodi.sourceforge.net/DTD/sodipodi-0.dtd"
   xmlns:inkscape="http://www.inkscape.org/namespaces/inkscape"
   enable-background="new 0 0 32 32"
   height="463.03894"
   id="Layer_1"
   version="1.1"
   viewBox="0 0 549.47296 463.03894"
   width="549.47296"
   xml:space="preserve"
   inkscape:version="0.91 r13725"
   sodipodi:docname="gorilla.svg"><metadata
     id="metadata9915"><rdf:RDF><cc:Work
         rdf:about=""><dc:format>image/svg+xml</dc:format><dc:type
           rdf:resource="http://purl.org/dc/dcmitype/StillImage" /><dc:title /></cc:Work></rdf:RDF></metadata><defs
     id="defs9913" /><sodipodi:namedview
     pagecolor="#ffffff"
     bordercolor="#666666"
     borderopacity="1"
     objecttolerance="10"
     gridtolerance="10"
     guidetolerance="10"
     inkscape:pageopacity="0"
     inkscape:pageshadow="2"
     inkscape:window-width="1920"
     inkscape:window-height="1027"
     id="namedview9911"
     showgrid="false"
     fit-margin-top="0"
     fit-margin-left="0"
     fit-margin-right="0"
     fit-margin-bottom="0"
     inkscape:zoom="0.58958333"
     inkscape:cx="-3.7013638"
     inkscape:cy="370.94204"
     inkscape:window-x="0"
     inkscape:window-y="0"
     inkscape:window-maximized="1"
     inkscape:current-layer="Layer_1" /><path
     style="opacity:1;fill:#333333;fill-opacity:1;stroke:none;stroke-width:5.37349081;stroke-linejoin:miter;stroke-miterlimit:4;stroke-dasharray:none;stroke-opacity:1"
     d="m 0,0 0,463.03893 549.47294,0 L 549.47294,0 0,0 Z m 341.06338,53.92283 c 0.78032,0.0266 1.59144,0.13298 2.44563,0.34125 13.66672,3.3168 40.18203,30.33826 48.45928,69.83006 0,0 8.69338,5.80485 2.9024,10.79558 -5.79095,4.9907 -12.83293,12.48218 -10.76359,19.13133 2.0693,6.64912 12.8336,7.48507 4.13943,20.36481 -7.72128,11.43834 -6.62155,7.90458 -2.48295,16.63061 4.13861,8.72602 9.93899,34.49641 13.66067,46.13629 3.72172,11.63977 28.15482,46.13376 31.47498,63.18279 3.30472,17.03353 -2.48486,16.20559 5.79236,24.51313 8.29268,8.32304 11.19355,15.37952 12.42897,27.85631 1.00376,10.07439 10.92123,26.10206 6.19582,34.08411 l -47.92253,0 c 0.1234,-2.0459 0.86921,-4.93261 0.17419,-8.21844 -1.23538,-5.81217 -1.91578,-17.96554 -6.47131,-30.44234 -4.55561,-12.47682 -18.64268,-9.55838 -29.40615,-34.49646 -10.77893,-24.93811 -19.05444,-37.79162 -21.12374,-49.04403 -2.08474,-11.25235 2.88605,-11.21915 -3.32186,-30.74805 -6.20791,-19.52889 0.41508,-25.76095 -10.76536,-21.60716 -11.18041,4.15375 -4.13849,13.29981 -11.59717,22.44429 -7.45879,9.14448 -13.66368,15.37685 -19.05312,20.78604 -5.37404,5.40919 -4.55388,6.22952 -3.71999,27.01385 0.83389,20.78433 7.0405,22.44061 -2.07061,40.72961 -9.11114,18.28896 -15.31666,8.72564 -10.34413,24.10078 4.97249,15.39064 11.05867,19.94815 7.04361,36.99719 -0.20093,0.88343 -0.407,1.72402 -0.60785,2.49894 l -108.63659,0 c -0.24715,-2.44883 -1.02084,-5.62811 -3.81596,-9.98333 -8.27721,-12.89529 -15.51587,-29.38359 -19.87069,-39.48903 -11.30395,-26.22449 -25.6844,14.96774 -25.6844,18.70299 4e-5,3.73529 0.41997,3.32096 5.39246,10.38857 4.04597,5.75018 9.18643,14.25942 8.02826,20.35059 l -65.59998,0 c 0.4942,-0.77499 0.30537,-1.62845 1.09306,-2.52739 0,0 16.50802,-64.92957 21.66583,-83.9315 3.72168,-13.71672 -23.93251,-28.25419 -14.08012,-76.472 1.25081,-6.16863 10.87383,-29.53752 38.09914,-48.214 21.61956,-14.81716 24.53955,-15.61008 45.55688,-17.87296 17.71264,-1.90638 23.61177,-2.07852 28.16734,-4.15544 4.55557,-2.07687 40.15884,-28.25545 44.71441,-31.16927 4.55554,-2.91386 1.23731,-2.90866 10.76538,-9.97623 9.52806,-7.06761 14.48634,-17.87676 24.43137,-21.20904 9.94502,-3.31685 20.70988,-11.63872 30.23794,-15.37403 8.93252,-3.50181 12.76396,-22.35107 24.46869,-21.94842 z M 247.1361,251.86561 c -1.66242,-0.36182 -2.93208,7.28398 -5.47244,9.8607 -2.90319,2.94483 -5.38895,5.35952 -12.43074,9.9318 -7.04184,4.57224 -24.84371,3.7342 -24.84371,3.7342 0,0 -3.30469,8.42839 0,18.30131 2.88779,8.64849 4.95468,4.15969 10.34414,10.39035 5.38949,6.23066 12.83518,24.09902 15.73838,35.73883 2.90322,11.63988 9.11216,11.21974 13.66777,12.47517 4.55553,1.25544 3.73167,0.41954 3.31475,-3.7342 -0.40153,-4.16929 -18.35683,-19.44606 -14.89771,-37.40953 3.9842,-20.67589 1.24935,-14.55812 9.52657,-27.85631 8.27721,-13.2983 7.85992,-27.41578 5.79059,-30.74804 -0.25881,-0.41653 -0.50009,-0.63259 -0.7376,-0.68428 z"
     id="rect10459"
     inkscape:connector-curvature="0" /></svg>